<svg preserveAspectRatio="none" overflow="visible" style="display: block;" width="16" height="16" viewBox="0 0 16 16" fill="none" xmlns="http://www.w3.org/2000/svg">
<g id="Frame">
<path id="Vector" d="M13.8333 2.16683H2.16667C1.525 2.16683 1 2.69183 1 3.3335V12.6668C1 13.3085 1.525 13.8335 2.16667 13.8335H13.8333C14.475 13.8335 15 13.3085 15 12.6668V3.3335C15 2.69183 14.475 2.16683 13.8333 2.16683ZM12.0833 11.5002H7.41667C7.09 11.5002 6.83333 11.2435 6.83333 10.9168C6.83333 10.5902 7.09 10.3335 7.41667 10.3335H12.0833C12.41 10.3335 12.6667 10.5902 12.6667 10.9168C12.6667 11.2435 12.41 11.5002 12.0833 11.5002ZM3.91667 11.6402C3.82149 11.6407 3.72716 11.6224 3.63907 11.5863C3.55099 11.5503 3.47087 11.4972 3.40333 11.4302C3.26936 11.2929 3.19437 11.1087 3.19437 10.9168C3.19437 10.725 3.26936 10.5408 3.40333 10.4035L5.80667 8.00016L3.40333 5.59683C3.26936 5.45954 3.19437 5.27532 3.19437 5.0835C3.19437 4.89167 3.26936 4.70745 3.40333 4.57016C3.68333 4.29016 4.15 4.29016 4.43 4.57016L6.93833 7.06683C7.45167 7.58016 7.45167 8.4085 6.93833 8.92183L4.43 11.4302C4.36246 11.4972 4.28235 11.5503 4.19426 11.5863C4.10617 11.6224 4.01184 11.6407 3.91667 11.6402Z" fill="#595959"/>
</g>
</svg>
